<?xml version="1.0" encoding="UTF-8" standalone="no"?>
<svg
   role="img"
   width="1000mm"
   height="1000mm"
   viewBox="0 0 1000 1000"
   class="stroke-white fill-white"
   style="max-width:1.6em; height: auto; color: white"
   version="1.1"
   id="svg3"
   sodipodi:docname="loading.svg"
   inkscape:version="1.1.2 (0a00cf5339, 2022-02-04)"
   xmlns:inkscape="http://www.inkscape.org/namespaces/inkscape"
   xmlns:sodipodi="http://sodipodi.sourceforge.net/DTD/sodipodi-0.dtd"
   xmlns="http://www.w3.org/2000/svg"
   xmlns:svg="http://www.w3.org/2000/svg">
  <defs
     id="defs7" />
  <sodipodi:namedview
     id="namedview5"
     pagecolor="#505050"
     bordercolor="#ffffff"
     borderopacity="1"
     inkscape:pageshadow="0"
     inkscape:pageopacity="0"
     inkscape:pagecheckerboard="1"
     inkscape:document-units="mm"
     showgrid="false"
     inkscape:zoom="0.10583333"
     inkscape:cx="2177.9528"
     inkscape:cy="3373.2285"
     inkscape:window-width="870"
     inkscape:window-height="1003"
     inkscape:window-x="4276"
     inkscape:window-y="20"
     inkscape:window-maximized="0"
     inkscape:current-layer="svg3" />
  <path
     id="path"
     style="opacity:1;vector-effect:none;fill:#ffffff;fill-opacity:1"
     d="m 170,500 c 0,33 -27,60 -60,60 -33,0 -60,-27 -60,-60 0,-33 27,-60 60,-60 33,0 60,27 60,60 0,0 0,0 0,0 m 90,250 c 0,28 -22,50 -50,50 -28,0 -50,-22 -50,-50 0,-28 22,-50 50,-50 13,0 26,5 35,15 10,9 15,22 15,35 0,0 0,0 0,0 m 20,-500 c 0,19 -7,36 -21,49 -13,14 -30,21 -49,21 -39,0 -70,-31 -70,-70 0,-19 7,-36 21,-49 13,-14 30,-21 49,-21 19,0 36,7 49,21 14,13 21,30 21,49 0,0 0,0 0,0 m 220,600 c 0,11 -4,21 -12,28 -7,8 -17,12 -28,12 -11,0 -21,-4 -28,-12 -8,-7 -12,-17 -12,-28 0,-22 18,-40 40,-40 22,0 40,18 40,40 0,0 0,0 0,0 m 40,-700 c 0,44 -36,80 -80,80 -21,0 -42,-8 -57,-23 -15,-15 -23,-36 -23,-57 0,-21 8,-42 23,-57 15,-15 36,-23 57,-23 21,0 42,8 57,23 15,15 23,36 23,57 0,0 0,0 0,0 m 200,600 c 0,17 -13,30 -30,30 -17,0 -30,-13 -30,-30 0,-17 13,-30 30,-30 8,0 16,3 21,9 6,5 9,13 9,21 0,0 0,0 0,0 m 60,-500 c 0,50 -40,90 -90,90 -50,0 -90,-40 -90,-90 0,-50 40,-90 90,-90 24,0 47,9 64,26 17,17 26,40 26,64 0,0 0,0 0,0 m 110,250 c 0,27 -11,52 -29,71 -19,18 -44,29 -71,29 -27,0 -52,-11 -71,-29 -18,-19 -29,-44 -29,-71 0,-27 11,-52 29,-71 19,-18 44,-29 71,-29 27,0 52,11 71,29 18,19 29,44 29,71 0,0 0,0 0,0" />
</svg>
