<svg width="40" height="41" viewBox="0 0 40 41" fill="none" xmlns="http://www.w3.org/2000/svg">
<path d="M19.875 37.6723C11.1563 37.6723 1.75 32.2036 1.75 20.2036C1.75 8.20358 11.1563 2.73483 19.875 2.73483C24.7188 2.73483 29.1875 4.32858 32.5 7.23483C36.0938 10.4223 38 14.9223 38 20.2036C38 25.4848 36.0938 29.9536 32.5 33.1411C29.1875 36.0473 24.6875 37.6723 19.875 37.6723Z" fill="url(#paint0_radial_12_31)"/>
<path d="M34.8406 9.8192C36.5062 12.5067 37.375 15.7067 37.375 19.2661C37.375 24.5473 35.4688 29.0161 31.875 32.2036C28.5625 35.1098 24.0625 36.7348 19.25 36.7348C13.6062 36.7348 7.6875 34.4379 4.19375 29.5661C7.55625 35.0848 13.8812 37.6723 19.875 37.6723C24.6875 37.6723 29.1875 36.0473 32.5 33.1411C36.0938 29.9536 38 25.4848 38 20.2036C38 16.2223 36.9156 12.6848 34.8406 9.8192Z" fill="#EB8F00"/>
<path d="M20 27.7973C23.375 27.7973 25.5625 30.2661 26.1562 31.4223C26.375 31.8598 26.375 32.2348 26.1875 32.3911C25.9875 32.5161 25.7312 32.5161 25.5312 32.3911C25.4312 32.3504 25.3375 32.2973 25.25 32.2348C23.7187 31.1351 21.8852 30.5348 20 30.5161C18.1219 30.5411 16.2906 31.1286 14.75 32.2036C14.6625 32.2661 14.5687 32.3192 14.4687 32.3598C14.2687 32.4848 14.0125 32.4848 13.8125 32.3598C13.625 32.1723 13.625 31.8286 13.8437 31.3911C14.4375 30.2661 16.625 27.7973 20 27.7973ZM23.25 21.7036C23.149 21.7968 23.0674 21.909 23.0099 22.0338C22.9524 22.1587 22.9201 22.2936 22.9148 22.4309C22.9096 22.5683 22.9316 22.7053 22.9794 22.8341C23.0273 22.963 23.1001 23.0811 23.1937 23.1817C23.2562 23.2504 23.3281 23.3098 23.4062 23.3598C24.3187 24.0379 25.3437 24.5473 26.4375 24.8598C27.5406 25.1348 28.6812 25.2192 29.8125 25.1098C30.095 25.102 30.3629 24.9825 30.5574 24.7775C30.7519 24.5724 30.8571 24.2986 30.85 24.0161C30.8469 23.9317 30.8344 23.8473 30.8125 23.7661C30.7226 23.5033 30.548 23.2779 30.3161 23.1251C30.0842 22.9724 29.8081 22.9011 29.5312 22.9223C28.6937 23.0036 27.85 22.9536 27.0312 22.7661C26.225 22.5192 25.4625 22.1379 24.7812 21.6411C24.5571 21.4755 24.2831 21.3914 24.0046 21.4028C23.7262 21.4141 23.4599 21.5203 23.25 21.7036ZM16.75 21.7036C16.851 21.7968 16.9326 21.909 16.9901 22.0338C17.0476 22.1587 17.0799 22.2936 17.0852 22.4309C17.0904 22.5683 17.0684 22.7053 17.0206 22.8341C16.9727 22.963 16.8999 23.0811 16.8062 23.1817C16.7437 23.2504 16.6719 23.3098 16.5937 23.3598C15.6812 24.0379 14.6562 24.5473 13.5625 24.8598C12.4599 25.1347 11.3185 25.2193 10.1875 25.1098C10.0267 25.1071 9.8687 25.0669 9.72615 24.9924C9.58359 24.9179 9.46038 24.8112 9.36632 24.6808C9.27226 24.5503 9.20994 24.3997 9.18432 24.2409C9.1587 24.0821 9.17049 23.9195 9.21875 23.7661C9.3086 23.5033 9.4832 23.2779 9.71512 23.1251C9.94704 22.9724 10.2231 22.9011 10.5 22.9223C11.3375 23.0036 12.1812 22.9536 13 22.7661C13.8062 22.5192 14.5687 22.1379 15.25 21.6411C15.4683 21.4756 15.7375 21.3913 16.0112 21.4027C16.285 21.4141 16.5462 21.5205 16.75 21.7036Z" fill="#422B0D"/>
<defs>
<radialGradient id="paint0_radial_12_31" cx="0" cy="0" r="1" gradientUnits="userSpaceOnUse" gradientTransform="translate(19.875 20.2036) scale(17.8)">
<stop offset="0.5" stop-color="#FDE030"/>
<stop offset="0.92" stop-color="#F7C02B"/>
<stop offset="1" stop-color="#F4A223"/>
</radialGradient>
</defs>
</svg>
