<svg width="41" height="41" viewBox="0 0 41 41" fill="none" xmlns="http://www.w3.org/2000/svg">
<path d="M20.375 37.6224C11.6562 37.6224 2.25 32.1537 2.25 20.1537C2.25 8.15369 11.6562 2.68494 20.375 2.68494C25.2188 2.68494 29.6875 4.27869 33 7.18494C36.5938 10.3724 38.5 14.8724 38.5 20.1537C38.5 25.4349 36.5938 29.9037 33 33.0912C29.6875 35.9974 25.1875 37.6224 20.375 37.6224Z" fill="url(#paint0_radial_31_4741)"/>
<path d="M35.3407 9.7693C37.0063 12.4568 37.8751 15.6568 37.8751 19.2162C37.8751 24.4974 35.9688 28.9662 32.3751 32.1537C29.0626 35.0599 24.5626 36.6849 19.7501 36.6849C14.1063 36.6849 8.1876 34.3881 4.69385 29.5162C8.05635 35.0349 14.3813 37.6224 20.3751 37.6224C25.1876 37.6224 29.6876 35.9974 33.0001 33.0912C36.5938 29.9037 38.5001 25.4349 38.5001 20.1537C38.5001 16.1724 37.4157 12.6349 35.3407 9.7693Z" fill="#EB8F00"/>
<path d="M15.8124 18.2756L15.7655 18.2131L15.6312 18.0412L15.4655 17.8631C15.3968 17.7849 15.3155 17.7099 15.2374 17.6287C15.1593 17.5474 15.0624 17.4693 14.9749 17.4037C14.8937 17.3412 14.8062 17.2818 14.7124 17.2349C14.6499 17.2006 14.5812 17.1724 14.5093 17.1568C14.4875 17.1537 14.4654 17.1537 14.4437 17.1568H14.3905H14.4749H14.303C14.2562 17.1568 14.2874 17.1568 14.303 17.1568H14.328H14.2937C14.2218 17.1724 14.153 17.1974 14.0874 17.2349C13.9968 17.2849 13.9062 17.3412 13.8249 17.4037C13.7343 17.4724 13.6468 17.5474 13.5655 17.6287C13.3999 17.7881 13.253 17.9412 13.1593 18.0631L12.9968 18.2506L12.9249 18.3349C12.7072 18.5777 12.4075 18.7314 12.0833 18.7666C11.7591 18.8018 11.4334 18.7159 11.1687 18.5256C10.9972 18.4062 10.8631 18.2407 10.7818 18.0482C10.7005 17.8558 10.6754 17.6442 10.7093 17.4381C10.7093 17.4381 10.7312 17.3131 10.7905 17.0912C10.8843 16.7756 11.0155 16.4693 11.1812 16.1818C11.4468 15.7131 11.8062 15.3037 12.2374 14.9787C12.5218 14.7599 12.8374 14.5849 13.1749 14.4631C13.2687 14.4256 13.3655 14.3974 13.4624 14.3724C13.5655 14.3412 13.6687 14.3193 13.7749 14.3006L13.9655 14.2724L14.1249 14.2537H14.703C14.8093 14.2537 14.9124 14.2818 15.0155 14.2974C15.2155 14.3318 15.4155 14.3849 15.6062 14.4568C15.9437 14.5787 16.2593 14.7537 16.5437 14.9724C16.9749 15.2974 17.3343 15.7068 17.5999 16.1756C17.6968 16.3381 17.7812 16.5099 17.8499 16.6849C17.9093 16.8256 17.9593 16.9662 17.9999 17.1131C18.0218 17.1881 18.0405 17.2631 18.0499 17.3381V17.4162C18.1437 18.0537 17.6999 18.6474 17.0624 18.7412C17.0468 18.7443 17.0312 18.7443 17.0155 18.7474C16.5593 18.8131 16.103 18.6318 15.8124 18.2756ZM28.1437 18.2756L28.0937 18.2131L27.9593 18.0412L27.7937 17.8631C27.7249 17.7849 27.6437 17.7099 27.5655 17.6287C27.4874 17.5474 27.3905 17.4693 27.303 17.4037C27.2218 17.3412 27.1343 17.2818 27.0405 17.2349C26.978 17.2006 26.9093 17.1724 26.8374 17.1568C26.8157 17.1537 26.7936 17.1537 26.7718 17.1568H26.7187H26.803H26.6312C26.5843 17.1568 26.6155 17.1568 26.6312 17.1568H26.6562H26.6218C26.5499 17.1724 26.4812 17.1974 26.4155 17.2349C26.3249 17.2818 26.2374 17.3412 26.1562 17.4037C26.0624 17.4724 25.9749 17.5474 25.8937 17.6287C25.728 17.7881 25.5812 17.9412 25.4874 18.0631L25.3249 18.2506L25.2562 18.3349C25.0378 18.5777 24.7376 18.7314 24.4129 18.7666C24.0883 18.8018 23.7621 18.716 23.4968 18.5256C23.3253 18.4062 23.1912 18.2407 23.1099 18.0482C23.0286 17.8558 23.0035 17.6442 23.0374 17.4381C23.0374 17.4381 23.0593 17.3131 23.1218 17.0912C23.2155 16.7724 23.3437 16.4662 23.5124 16.1818C23.778 15.7131 24.1343 15.3037 24.5655 14.9787C24.8499 14.7599 25.1655 14.5849 25.503 14.4631C25.5968 14.4256 25.6937 14.3974 25.7905 14.3724C25.8937 14.3412 25.9968 14.3193 26.103 14.3006L26.2968 14.2724L26.453 14.2537H27.0312C27.1374 14.2537 27.2405 14.2818 27.3437 14.2974C27.5468 14.3318 27.7437 14.3849 27.9343 14.4568C28.2718 14.5787 28.5874 14.7537 28.8718 14.9724C29.303 15.2974 29.6624 15.7068 29.928 16.1756C30.0249 16.3381 30.1093 16.5099 30.178 16.6849C30.2374 16.8224 30.2874 16.9631 30.328 17.1068C30.3499 17.1818 30.3687 17.2568 30.378 17.3318V17.4099C30.4257 17.7162 30.3497 18.0288 30.1669 18.279C29.984 18.5293 29.7093 18.6966 29.403 18.7443C29.3937 18.7443 29.3843 18.7474 29.3749 18.7474C28.9093 18.8256 28.4374 18.6443 28.1437 18.2756ZM32.3968 22.8787C32.1855 22.4968 31.8436 22.2038 31.4338 22.0534C31.024 21.903 30.5738 21.9054 30.1655 22.0599C26.9587 22.9941 23.6338 23.4603 20.2937 23.4443C16.9536 23.4603 13.6287 22.9941 10.4218 22.0599C10.0147 21.9052 9.56559 21.9022 9.15647 22.0514C8.74735 22.2006 8.40559 22.492 8.19367 22.8724C7.76867 23.6568 8.07492 24.5662 8.4343 25.3506C10.4405 29.7568 14.8624 32.3943 20.2687 32.4099H20.3187C25.7249 32.4099 30.1468 29.7568 32.1562 25.3506C32.5124 24.5599 32.8218 23.6631 32.3968 22.8787Z" fill="#422B0D"/>
<path d="M25.2968 31.1662C25.1812 31.0599 25.0625 30.9631 24.9437 30.8537C23.6678 29.7315 22.0176 29.1283 20.3187 29.1631C18.5687 29.1349 16.8656 29.7162 15.5 30.8099C15.3812 30.9068 15.2562 31.0006 15.1406 31.1224C15.025 31.2443 14.9625 31.3318 14.8875 31.4349C16.6062 32.1068 18.4375 32.4506 20.2843 32.4412H20.3343C22.1031 32.4412 23.8562 32.1256 25.5125 31.5037C25.45 31.3849 25.3781 31.2724 25.2968 31.1662Z" fill="#ED7770"/>
<path d="M30.1657 22.0599C26.9588 22.9941 23.6339 23.4603 20.2938 23.4443C16.9537 23.4603 13.6288 22.9941 10.4219 22.0599C10.0149 21.9052 9.56571 21.9022 9.15659 22.0514C8.74748 22.2006 8.40572 22.492 8.1938 22.8724C8.1313 22.9912 8.0813 23.1162 8.05005 23.2443C8.15317 23.2974 8.27192 23.3506 8.41255 23.4068C12.1749 25.2908 16.3333 26.2476 20.5407 26.1974C24.575 26.2443 28.5625 25.3662 32.2063 23.6349C32.3532 23.5724 32.475 23.5131 32.5844 23.4568C32.5594 23.2537 32.4938 23.0537 32.3969 22.8724C32.185 22.4912 31.8427 22.1992 31.4329 22.0499C31.023 21.9007 30.5731 21.9042 30.1657 22.0599Z" fill="white"/>
<path d="M32.4093 22.8818C32.1948 22.499 31.8502 22.2056 31.438 22.0548C31.0259 21.9041 30.5734 21.9059 30.1624 22.0599C26.9562 22.9943 23.6312 23.4599 20.2937 23.4443C16.9536 23.4603 13.6287 22.9941 10.4218 22.0599C10.0147 21.9052 9.56559 21.9022 9.15647 22.0514C8.74735 22.2006 8.40559 22.492 8.19367 22.8724C7.76867 23.6568 8.07492 24.5662 8.4343 25.3506C8.59367 25.7037 8.7718 26.0506 8.96867 26.3849C8.96867 26.3849 8.31242 23.9537 8.88117 23.2474C8.97649 23.0998 9.10553 22.9769 9.25766 22.8888C9.40979 22.8008 9.58065 22.7502 9.75617 22.7412C9.90305 22.7412 10.0468 22.7662 10.1874 22.8099C13.4499 23.7693 16.8343 24.2537 20.2374 24.2474H20.3468C23.7499 24.2537 27.1343 23.7693 30.3968 22.8099C30.5374 22.7662 30.6812 22.7412 30.828 22.7412C31.1843 22.7599 31.5124 22.9474 31.7062 23.2474C32.2843 23.9537 31.6187 26.3943 31.6187 26.3943C31.8124 26.0599 32.0062 25.7162 32.1687 25.3599C32.5249 24.5756 32.8343 23.6693 32.4093 22.8818Z" fill="#EB8F00"/>
<defs>
<radialGradient id="paint0_radial_31_4741" cx="0" cy="0" r="1" gradientUnits="userSpaceOnUse" gradientTransform="translate(20.375 20.1537) scale(17.8)">
<stop offset="0.5" stop-color="#FDE030"/>
<stop offset="0.92" stop-color="#F7C02B"/>
<stop offset="1" stop-color="#F4A223"/>
</radialGradient>
</defs>
</svg>
