<svg width="41" height="41" viewBox="0 0 41 41" fill="none" xmlns="http://www.w3.org/2000/svg">
<path d="M20.375 37.6224C11.6562 37.6224 2.25 32.1537 2.25 20.1537C2.25 8.15369 11.6562 2.68494 20.375 2.68494C25.2188 2.68494 29.6875 4.27869 33 7.18494C36.5938 10.3724 38.5 14.8724 38.5 20.1537C38.5 25.4349 36.5938 29.9037 33 33.0912C29.6875 35.9974 25.1875 37.6224 20.375 37.6224Z" fill="url(#paint0_radial_31_4452)"/>
<path d="M35.3406 9.7693C37.0062 12.4568 37.875 15.6568 37.875 19.2162C37.875 24.4974 35.9687 28.9662 32.375 32.1537C29.0625 35.0599 24.5625 36.6849 19.75 36.6849C14.1062 36.6849 8.18748 34.3881 4.69373 29.5162C8.05623 35.0349 14.3812 37.6224 20.375 37.6224C25.1875 37.6224 29.6875 35.9974 33 33.0912C36.5937 29.9037 38.5 25.4349 38.5 20.1537C38.5 16.1724 37.4156 12.6349 35.3406 9.7693Z" fill="#D84213"/>
<path d="M26.7313 32.7287C26.6239 32.6882 26.5283 32.6216 26.4532 32.5349C23.4125 29.3756 18.3844 29.2787 15.225 32.3193C15.1532 32.3912 15.0782 32.4631 15.0094 32.5349C14.9344 32.6224 14.8375 32.6881 14.7313 32.7287C14.4969 32.8162 14.2313 32.7662 14.0438 32.6006C13.8594 32.4381 13.7969 32.1787 13.8907 31.9506C14.8219 29.5599 17.5907 27.6849 20.7313 27.6849C23.8719 27.6849 26.6407 29.5599 27.5719 31.9474C27.6657 32.1756 27.6032 32.4349 27.4188 32.5974C27.2313 32.7631 26.9657 32.8131 26.7313 32.7287ZM18.6688 22.0037C17.9688 21.1224 15.0844 19.4287 14.0438 18.9349C13.6563 18.7568 13.2532 18.6131 12.8407 18.5068C12.7657 18.4849 12.6844 18.4756 12.6063 18.4756C12.4037 18.4806 12.2088 18.554 12.0533 18.684C11.8978 18.8139 11.7909 18.9927 11.75 19.1912C11.703 19.3978 11.7294 19.6144 11.8246 19.8037C11.9198 19.993 12.078 20.1433 12.2719 20.2287C12.7625 20.4693 13.6188 20.9256 14.5063 21.4287C14.1422 21.6458 13.8407 21.9538 13.6314 22.3225C13.4222 22.6912 13.3123 23.1079 13.3125 23.5318V23.9881C13.3125 25.2818 14.3625 26.3318 15.6563 26.3318C16.95 26.3318 18 25.2818 18 23.9881V23.4787C18.3344 23.4568 18.6344 23.2568 18.7813 22.9568C18.9344 22.6443 18.8907 22.2724 18.6688 22.0037ZM29.725 19.1912C29.6825 18.9912 29.5728 18.8118 29.4142 18.6828C29.2556 18.5537 29.0576 18.4828 28.8532 18.4818C28.775 18.4818 28.6938 18.4912 28.6188 18.5131C28.2063 18.6162 27.8032 18.7599 27.4157 18.9349C26.375 19.4224 23.4907 21.1224 22.7907 21.9974C22.6828 22.1304 22.6156 22.2917 22.5973 22.4619C22.579 22.6321 22.6104 22.804 22.6875 22.9568C22.8375 23.2599 23.1344 23.4568 23.4719 23.4787V23.9881C23.4719 25.2818 24.5219 26.3318 25.8157 26.3318C27.1094 26.3318 28.1594 25.2818 28.1594 23.9881V23.5318C28.1594 22.6724 27.7063 21.8756 26.9688 21.4349C27.8563 20.9318 28.7125 20.4756 29.2032 20.2349C29.6063 20.0599 29.8282 19.6193 29.725 19.1912Z" fill="#422B0D"/>
<path d="M15.5376 21.8881C15.3236 21.7863 15.078 21.7732 14.8544 21.8516C14.6308 21.93 14.4473 22.0936 14.3438 22.3068C14.1782 22.6537 14.2532 23.0693 14.5313 23.3381C14.9751 23.5506 15.5094 23.3631 15.7251 22.9193C15.8907 22.5724 15.8157 22.1568 15.5376 21.8881ZM25.6969 21.8881C25.483 21.7863 25.2374 21.7732 25.0138 21.8516C24.7902 21.93 24.6067 22.0936 24.5032 22.3068C24.3376 22.6537 24.4126 23.0693 24.6907 23.3381C25.1344 23.5506 25.6688 23.3631 25.8844 22.9193C26.0501 22.5724 25.9751 22.1568 25.6969 21.8881Z" fill="#896024"/>
<defs>
<radialGradient id="paint0_radial_31_4452" cx="0" cy="0" r="1" gradientUnits="userSpaceOnUse" gradientTransform="translate(20.375 20.1537) scale(17.8)">
<stop offset="0.12" stop-color="#FAC742"/>
<stop offset="0.32" stop-color="#FAC440"/>
<stop offset="0.48" stop-color="#FBBA3B"/>
<stop offset="0.62" stop-color="#FBA931"/>
<stop offset="0.76" stop-color="#FC9224"/>
<stop offset="0.88" stop-color="#FE7413"/>
<stop offset="1" stop-color="#FF5100"/>
</radialGradient>
</defs>
</svg>
