<svg width="41" height="41" viewBox="0 0 41 41" fill="none" xmlns="http://www.w3.org/2000/svg">
<path d="M20.375 37.6225C11.6562 37.6225 2.25 32.1537 2.25 20.1537C2.25 8.15371 11.6562 2.68496 20.375 2.68496C25.2188 2.68496 29.6875 4.27871 33 7.18496C36.5938 10.3725 38.5 14.8725 38.5 20.1537C38.5 25.435 36.5938 29.9037 33 33.0912C29.6875 35.9975 25.1875 37.6225 20.375 37.6225Z" fill="url(#paint0_radial_31_4666)"/>
<path d="M35.3407 9.76935C37.0063 12.4568 37.8751 15.6568 37.8751 19.2162C37.8751 24.4975 35.9688 28.9662 32.3751 32.1537C29.0626 35.06 24.5626 36.685 19.7501 36.685C14.1063 36.685 8.1876 34.3881 4.69385 29.5162C8.05635 35.035 14.3813 37.6225 20.3751 37.6225C25.1876 37.6225 29.6876 35.9975 33.0001 33.0912C36.5938 29.9037 38.5001 25.435 38.5001 20.1537C38.5001 16.1725 37.4157 12.635 35.3407 9.76935Z" fill="#789E46"/>
<g opacity="0.65">
<path d="M29.2907 34.2443C31.5292 34.2443 33.3438 32.5808 33.3438 30.5287C33.3438 28.4766 31.5292 26.8131 29.2907 26.8131C27.0522 26.8131 25.2375 28.4766 25.2375 30.5287C25.2375 32.5808 27.0522 34.2443 29.2907 34.2443Z" fill="url(#paint1_radial_31_4666)"/>
</g>
<g opacity="0.65">
<path d="M12.0563 34.8693C14.2948 34.8693 16.1094 33.2058 16.1094 31.1537C16.1094 29.1016 14.2948 27.4381 12.0563 27.4381C9.81782 27.4381 8.00317 29.1016 8.00317 31.1537C8.00317 33.2058 9.81782 34.8693 12.0563 34.8693Z" fill="url(#paint2_radial_31_4666)"/>
</g>
<path d="M13.853 27.7287C14.6812 28.1256 15.6312 29.2475 15.978 30.0975C16.2468 30.7725 16.3187 31.5131 16.178 32.2287M26.9062 27.5006C26.078 27.8943 25.1218 29.01 24.7749 29.86C24.5999 30.285 24.5062 30.7412 24.4968 31.2006M15.953 29.9287C15.953 29.9287 16.4905 28.4256 20.3874 28.3662C23.9218 28.31 24.7624 29.4443 24.7624 29.4443" stroke="#35220B" stroke-width="1.79733" stroke-linecap="round" stroke-linejoin="round"/>
<path d="M9.0625 16.685C8.375 16.81 8.34375 17.81 9.09375 17.8412C10.75 17.8631 12.35 17.2475 13.5625 16.1225C14.025 15.7225 14.4156 15.2475 14.7187 14.7162C14.9 14.4568 14.8375 14.1006 14.5781 13.9193C14.3187 13.7381 13.9625 13.8006 13.7812 14.06L13.75 14.0912C12.5252 15.4603 10.873 16.3745 9.0625 16.685ZM26.9062 11.8725C26.8632 11.8109 26.8084 11.7584 26.745 11.718C26.6817 11.6776 26.611 11.6501 26.537 11.637C26.4629 11.6239 26.3871 11.6256 26.3137 11.6419C26.2404 11.6581 26.1709 11.6887 26.1094 11.7318C26.0478 11.7749 25.9953 11.8297 25.9549 11.8931C25.9145 11.9564 25.887 12.0271 25.8739 12.1011C25.8608 12.1751 25.8625 12.251 25.8788 12.3244C25.895 12.3977 25.9256 12.4672 25.9687 12.5287C26.2719 13.06 26.6625 13.535 27.125 13.935C28.3437 15.0506 29.9406 15.6662 31.5937 15.6537C32.375 15.6225 32.3125 14.6225 31.625 14.4975C29.7949 14.1973 28.1264 13.2692 26.9062 11.8725ZM12.2969 20.0756C12.0701 20.1851 11.8875 20.3686 11.779 20.5958C11.6705 20.823 11.6426 21.0804 11.7 21.3256C12.0125 22.6725 13.0625 23.4537 14.1844 23.4537C15.5406 23.4537 16.7719 22.3068 16.7719 20.4068C16.775 20.0662 16.7312 19.7287 16.6437 19.4006C16.5997 19.2479 16.5226 19.1067 16.418 18.987C16.3134 18.8674 16.1838 18.7721 16.0384 18.708C15.8929 18.644 15.7352 18.6126 15.5763 18.6162C15.4174 18.6197 15.2612 18.6582 15.1187 18.7287L12.2969 20.0756Z" fill="#422B0D"/>
<path d="M15.3061 19.8037C15.1343 19.5443 14.6999 19.4912 14.2405 19.8037C13.7811 20.1162 13.6624 20.5287 13.8343 20.7881C14.0093 21.0506 14.4405 21.1006 14.8999 20.7881C15.3593 20.4756 15.478 20.0662 15.3061 19.8037Z" fill="#896024"/>
<path d="M28.5751 20.0756C29.0438 20.3006 29.2938 20.8193 29.1751 21.3256C28.847 22.6724 27.8095 23.4537 26.6751 23.4537C25.3188 23.4537 24.0845 22.3068 24.0845 20.4068C24.0845 20.0662 24.1251 19.7287 24.2126 19.4006C24.2574 19.248 24.335 19.107 24.4399 18.9876C24.5449 18.8681 24.6747 18.773 24.8203 18.709C24.9659 18.645 25.1237 18.6136 25.2827 18.617C25.4417 18.6204 25.598 18.6585 25.7407 18.7287L28.5751 20.0756Z" fill="#422B0D"/>
<path d="M25.5657 19.8037C25.7407 19.5443 26.1907 19.4912 26.6345 19.8037C27.0782 20.1162 27.2126 20.5287 27.0376 20.7881C26.8657 21.0506 26.4313 21.1006 25.972 20.7881C25.5126 20.4756 25.3938 20.0662 25.5657 19.8037Z" fill="#896024"/>
<defs>
<radialGradient id="paint0_radial_31_4666" cx="0" cy="0" r="1" gradientUnits="userSpaceOnUse" gradientTransform="translate(20.375 20.1537) scale(17.8)">
<stop stop-color="#FDE030"/>
<stop offset="0.19" stop-color="#F1DE37"/>
<stop offset="0.53" stop-color="#D1D748"/>
<stop offset="0.99" stop-color="#9DCC64"/>
<stop offset="1" stop-color="#9CCC65"/>
</radialGradient>
<radialGradient id="paint1_radial_31_4666" cx="0" cy="0" r="1" gradientUnits="userSpaceOnUse" gradientTransform="translate(29.282 30.584) scale(4.4055 3.861)">
<stop stop-color="#ED7770"/>
<stop offset="0.08" stop-color="#ED7770" stop-opacity="0.97"/>
<stop offset="0.21" stop-color="#ED7770" stop-opacity="0.88"/>
<stop offset="0.35" stop-color="#ED7770" stop-opacity="0.74"/>
<stop offset="0.52" stop-color="#ED7770" stop-opacity="0.55"/>
<stop offset="0.71" stop-color="#ED7770" stop-opacity="0.29"/>
<stop offset="0.9" stop-color="#ED7770" stop-opacity="0"/>
</radialGradient>
<radialGradient id="paint2_radial_31_4666" cx="0" cy="0" r="1" gradientUnits="userSpaceOnUse" gradientTransform="translate(12.0564 31.2091) scale(4.40355 3.85929)">
<stop stop-color="#ED7770"/>
<stop offset="0.08" stop-color="#ED7770" stop-opacity="0.97"/>
<stop offset="0.21" stop-color="#ED7770" stop-opacity="0.88"/>
<stop offset="0.35" stop-color="#ED7770" stop-opacity="0.74"/>
<stop offset="0.52" stop-color="#ED7770" stop-opacity="0.55"/>
<stop offset="0.71" stop-color="#ED7770" stop-opacity="0.29"/>
<stop offset="0.9" stop-color="#ED7770" stop-opacity="0"/>
</radialGradient>
</defs>
</svg>
