<svg width="41" height="41" viewBox="0 0 41 41" fill="none" xmlns="http://www.w3.org/2000/svg">
<path d="M20.375 37.6225C11.6562 37.6225 2.25 32.1537 2.25 20.1537C2.25 8.15372 11.6562 2.68497 20.375 2.68497C25.2188 2.68497 29.6875 4.27872 33 7.18497C36.5938 10.3725 38.5 14.8725 38.5 20.1537C38.5 25.435 36.5938 29.9037 33 33.0912C29.6875 35.9975 25.1875 37.6225 20.375 37.6225Z" fill="url(#paint0_radial_31_4640)"/>
<path d="M35.3407 9.76935C37.0063 12.4568 37.8751 15.6568 37.8751 19.2162C37.8751 24.4975 35.9688 28.9662 32.3751 32.1537C29.0626 35.06 24.5626 36.685 19.7501 36.685C14.1063 36.685 8.1876 34.3881 4.69385 29.5162C8.05635 35.035 14.3813 37.6225 20.3751 37.6225C25.1876 37.6225 29.6876 35.9975 33.0001 33.0912C36.5938 29.9037 38.5001 25.435 38.5001 20.1537C38.5001 16.1725 37.4157 12.635 35.3407 9.76935Z" fill="#EB8F00"/>
<path d="M20.6875 27.2475C21.8781 27.2506 23.0656 27.1881 24.25 27.06C24.2656 24.9881 22.5969 23.2975 20.525 23.285C18.4531 23.2725 16.7656 24.935 16.75 27.0068C18.0562 27.1693 19.3719 27.2506 20.6875 27.2475Z" fill="white"/>
<path d="M16.75 27.0068V30.935C16.75 33.0068 18.4281 34.685 20.5 34.685C22.5719 34.685 24.25 33.0068 24.25 30.935V27.0506C23.0688 27.1818 21.8844 27.2475 20.6969 27.2475C19.3781 27.2506 18.0594 27.1693 16.75 27.0068ZM26.6563 13.185C27.8438 13.185 28.9375 14.56 28.9375 16.8725C28.9375 19.185 27.8438 20.56 26.6563 20.56C25.4688 20.56 24.375 19.185 24.375 16.8725C24.375 14.56 25.4375 13.185 26.6563 13.185ZM14.3438 13.185C13.0625 13.185 11.9375 14.56 11.9375 16.8725C11.9375 19.185 13.0938 20.56 14.3438 20.56C15.5938 20.56 16.75 19.185 16.75 16.8725C16.75 14.56 15.5938 13.185 14.3438 13.185ZM14.75 9.52872C15.4688 9.59122 15.75 8.62247 15 8.40372C14.4094 8.24435 13.7969 8.18185 13.1875 8.21623C11.5344 8.27873 9.96876 8.97247 8.81251 10.1537C8.28126 10.7162 9.03126 11.4037 9.59376 10.9975C11.0993 9.94377 12.9152 9.42651 14.75 9.52872ZM26.1875 9.52872C28.0313 9.42247 29.8594 9.9381 31.375 10.9975C31.9375 11.4037 32.6875 10.7162 32.1563 10.1537C30.9954 8.97788 29.4321 8.28557 27.7813 8.21623C27.1719 8.18185 26.5594 8.24435 25.9688 8.40372C25.6625 8.49122 25.4844 8.80685 25.5719 9.1131C25.6469 9.38497 25.9094 9.55997 26.1875 9.52872Z" fill="#422B0D"/>
<path d="M14.3375 14.5193C14.1235 14.4175 13.878 14.4044 13.6544 14.4829C13.4308 14.5613 13.2472 14.7249 13.1437 14.9381C12.9781 15.285 13.0531 15.7006 13.3312 15.9693C13.775 16.1818 14.3094 15.9943 14.525 15.5506C14.6906 15.2037 14.6156 14.7881 14.3375 14.5193ZM26.5344 14.5193C26.3196 14.4187 26.0738 14.4073 25.8506 14.4875C25.6275 14.5678 25.4452 14.7332 25.3437 14.9475C25.1812 15.2943 25.2562 15.7037 25.5312 15.9693C25.9781 16.1787 26.5094 15.9881 26.7219 15.5412C26.8844 15.1975 26.8094 14.785 26.5344 14.5193Z" fill="#896024"/>
<path d="M24.25 27.2475C24.0688 26.3287 23.5875 25.4944 22.8844 24.8725C22.2235 24.2967 21.3766 23.9795 20.5 23.9795C19.6235 23.9795 18.7766 24.2967 18.1157 24.8725C17.4136 25.494 16.934 26.328 16.75 27.2475C16.575 26.2006 16.8875 25.1319 17.5969 24.3444C19 22.7412 21.4407 22.5787 23.0438 23.985C23.1719 24.0975 23.2907 24.2162 23.4032 24.3444C23.7563 24.7444 24.0157 25.2162 24.1657 25.7287C24.3094 26.2225 24.3375 26.7412 24.25 27.2475Z" fill="#EB8F00"/>
<defs>
<radialGradient id="paint0_radial_31_4640" cx="0" cy="0" r="1" gradientUnits="userSpaceOnUse" gradientTransform="translate(20.375 20.1537) scale(17.8)">
<stop offset="0.5" stop-color="#FDE030"/>
<stop offset="0.92" stop-color="#F7C02B"/>
<stop offset="1" stop-color="#F4A223"/>
</radialGradient>
</defs>
</svg>
