<svg width="41" height="41" viewBox="0 0 41 41" fill="none" xmlns="http://www.w3.org/2000/svg">
<path d="M20.375 37.6224C11.6562 37.6224 2.25 32.1537 2.25 20.1537C2.25 8.15369 11.6562 2.68494 20.375 2.68494C25.2188 2.68494 29.6875 4.27869 33 7.18494C36.5938 10.3724 38.5 14.8724 38.5 20.1537C38.5 25.4349 36.5938 29.9037 33 33.0912C29.6875 35.9974 25.1875 37.6224 20.375 37.6224Z" fill="url(#paint0_radial_31_4651)"/>
<path d="M35.3407 9.76933C37.0063 12.4568 37.8751 15.6568 37.8751 19.2162C37.8751 24.4974 35.9688 28.9662 32.3751 32.1537C29.0626 35.0599 24.5626 36.6849 19.7501 36.6849C14.1063 36.6849 8.1876 34.3881 4.69385 29.5162C8.05635 35.0349 14.3813 37.6224 20.3751 37.6224C25.1876 37.6224 29.6876 35.9974 33.0001 33.0912C36.5938 29.9037 38.5001 25.4349 38.5001 20.1537C38.5001 16.1725 37.4157 12.6349 35.3407 9.76933Z" fill="#EB8F00"/>
<path d="M20.375 37.6224C11.6562 37.6224 2.25 32.1537 2.25 20.1537C2.25 8.15369 11.6562 2.68494 20.375 2.68494C25.2188 2.68494 29.6875 4.27869 33 7.18494C36.5938 10.3724 38.5 14.8724 38.5 20.1537C38.5 25.4349 36.5938 29.9037 33 33.0912C29.6875 35.9974 25.1875 37.6224 20.375 37.6224Z" fill="url(#paint1_linear_31_4651)"/>
<path d="M20.5001 31.7162C21.7032 31.7162 22.897 31.9224 24.0313 32.3193C26.4376 33.1599 28.522 30.4443 27.1251 28.3193C25.6688 26.1224 23.4032 25.4974 20.5001 25.4974C17.597 25.4974 15.3345 26.0943 13.8782 28.3099C12.4782 30.4381 14.5657 33.1474 16.972 32.3099C18.1063 31.9131 19.3001 31.7131 20.5001 31.7162Z" fill="#422B0D"/>
<path d="M6.6001 33.9349C3.95635 33.9349 1.9126 31.3693 1.9126 29.1724C1.9126 27.6287 2.60322 25.8381 3.58135 23.3568C3.70322 22.9912 3.86572 22.6224 4.02822 22.2162C4.49385 21.0537 4.90322 19.7943 5.52822 18.7037C5.62355 18.5329 5.76272 18.3907 5.93137 18.2917C6.10002 18.1927 6.29204 18.1405 6.4876 18.1405C6.68316 18.1405 6.87517 18.1927 7.04382 18.2917C7.21247 18.3907 7.35165 18.5329 7.44697 18.7037C8.02822 19.7756 8.42822 20.9349 9.03135 22.2881C10.7407 26.1131 11.2188 27.6599 11.2188 29.2037C11.2782 31.3818 9.20322 33.9349 6.6001 33.9349Z" fill="url(#paint2_radial_31_4651)"/>
<path d="M9.45947 31.0131C8.8626 31.9506 7.50635 31.7631 7.50635 30.2287C7.50635 29.2475 7.70635 24.21 8.5501 24.9162C9.91885 26.0631 10.3095 29.7068 9.45947 31.0131Z" fill="#81D4FA"/>
<path d="M9.05943 12.9255C8.37193 13.0474 8.33755 14.0474 9.08755 14.0818C10.7438 14.1068 12.3438 13.4943 13.5626 12.3724C14.0258 11.9739 14.4178 11.4994 14.7219 10.9693C14.9032 10.7099 14.8407 10.3537 14.5844 10.1693C14.3282 9.98492 13.9688 10.0505 13.7844 10.3068L13.7532 10.338C12.5251 11.7099 10.8719 12.6193 9.05943 12.9255ZM27.4125 10.3474L27.3813 10.3162C27.2937 10.1916 27.1603 10.1069 27.0104 10.0806C26.8604 10.0542 26.7061 10.0884 26.5813 10.1755C26.5195 10.2189 26.4669 10.274 26.4265 10.3377C26.3862 10.4015 26.3588 10.4726 26.346 10.5469C26.3332 10.6213 26.3353 10.6974 26.3521 10.771C26.3689 10.8446 26.4 10.9141 26.4438 10.9755C26.75 11.5037 27.1438 11.9755 27.6094 12.3724C28.8282 13.4943 30.4282 14.1037 32.0844 14.0755C32.8344 14.0412 32.8 13.0412 32.1094 12.9193C30.2969 12.6162 28.6438 11.7099 27.4125 10.3474ZM14.2501 16.1037C12.9407 16.1037 11.7501 17.2099 11.7501 19.0474C11.7501 20.8849 12.9407 21.988 14.2501 21.988C15.5626 21.988 16.7501 20.8818 16.7501 19.0474C16.7501 17.213 15.5751 16.1037 14.2501 16.1037Z" fill="#422B0D"/>
<path d="M14.1407 17.3318C13.9267 17.23 13.6812 17.2169 13.4576 17.2954C13.234 17.3738 13.0505 17.5374 12.947 17.7506C12.7813 18.0974 12.8563 18.5131 13.1345 18.7818C13.5782 18.9943 14.1126 18.8068 14.3282 18.3631C14.4938 18.0162 14.4188 17.6006 14.1407 17.3318Z" fill="#896024"/>
<path d="M26.25 16.1037C24.9406 16.1037 23.75 17.2099 23.75 19.0474C23.75 20.8849 24.9406 21.988 26.25 21.988C27.5594 21.988 28.75 20.8818 28.75 19.0474C28.75 17.213 27.5594 16.1037 26.25 16.1037Z" fill="#422B0D"/>
<path d="M26.1251 17.3318C25.9111 17.23 25.6656 17.2169 25.442 17.2954C25.2184 17.3738 25.0348 17.5374 24.9313 17.7506C24.7657 18.0974 24.8407 18.5131 25.1188 18.7818C25.5626 18.9943 26.097 18.8068 26.3126 18.3631C26.4782 18.0162 26.4032 17.6006 26.1251 17.3318Z" fill="#896024"/>
<defs>
<radialGradient id="paint0_radial_31_4651" cx="0" cy="0" r="1" gradientUnits="userSpaceOnUse" gradientTransform="translate(20.375 20.1537) scale(17.8)">
<stop offset="0.5" stop-color="#FDE030"/>
<stop offset="0.92" stop-color="#F7C02B"/>
<stop offset="1" stop-color="#F4A223"/>
</radialGradient>
<linearGradient id="paint1_linear_31_4651" x1="20.375" y1="37.6224" x2="20.375" y2="2.68494" gradientUnits="userSpaceOnUse">
<stop offset="0.39" stop-color="#40C0E7" stop-opacity="0"/>
<stop offset="1" stop-color="#5F7AFF"/>
</linearGradient>
<radialGradient id="paint2_radial_31_4651" cx="0" cy="0" r="1" gradientUnits="userSpaceOnUse" gradientTransform="translate(6.93447 20.1682) scale(10.4375 16.0737)">
<stop offset="0.46" stop-color="#29B6F6"/>
<stop offset="1" stop-color="#1E88E5"/>
</radialGradient>
</defs>
</svg>
