<svg width="140" height="40" viewBox="0 0 140 40" fill="none" xmlns="http://www.w3.org/2000/svg">
<path d="M50.468 24.3997H47.5126L48.1999 20.4133H51.1553L51.3615 19.2793C51.7281 17.3319 52.5643 15.8656 53.8702 14.8805C55.1761 13.8724 56.9287 13.3684 59.1281 13.3684H61.568L60.8464 17.3548H58.4752C57.8337 17.3548 57.2953 17.5037 56.86 17.8015C56.4476 18.0765 56.1727 18.5919 56.0352 19.348L55.829 20.4133H59.9529L59.2656 24.3997H55.1417L52.8049 37.5616H48.1312L50.468 24.3997ZM65.8605 18.7981C65.1044 18.7981 64.4973 18.592 64.0391 18.1796C63.5809 17.7672 63.3518 17.2288 63.3518 16.5644C63.3518 15.5563 63.6611 14.743 64.2797 14.1245C64.9212 13.483 65.7688 13.1622 66.8227 13.1622C67.5788 13.1622 68.1859 13.3684 68.6441 13.7808C69.1023 14.1932 69.3314 14.7316 69.3314 15.396C69.3314 16.404 69.0106 17.2288 68.3692 17.8703C67.7506 18.4889 66.9144 18.7981 65.8605 18.7981ZM63.2144 20.4133H67.888L64.8639 37.5616H60.1902L63.2144 20.4133ZM75.9668 37.8365C73.9966 37.8365 72.4272 37.3898 71.2588 36.4963C70.1133 35.6028 69.5405 34.4 69.5405 32.8879C69.5405 32.5443 69.5749 32.2006 69.6436 31.857H74.2486C74.2257 31.9486 74.2142 32.0746 74.2142 32.235C74.2142 32.7619 74.386 33.1743 74.7297 33.4721C75.0733 33.77 75.5545 33.9189 76.173 33.9189H79.2659C79.9303 33.9189 80.4573 33.8272 80.8467 33.644C81.2362 33.4378 81.4653 33.1514 81.534 32.7848L81.6371 32.2006C81.6829 31.9715 81.6028 31.7653 81.3966 31.582C81.2133 31.3759 80.9384 31.2384 80.5718 31.1697L74.7984 30.1387C73.5842 29.9096 72.6334 29.4858 71.9461 28.8672C71.2588 28.2257 70.9151 27.4582 70.9151 26.5647C70.9151 26.4272 70.9381 26.2211 70.9839 25.9461L71.1901 24.8121C71.4421 23.3458 72.1981 22.2003 73.4582 21.3755C74.7412 20.5508 76.3792 20.1384 78.3724 20.1384H81.0529C82.9086 20.1384 84.3749 20.5622 85.4517 21.4099C86.5514 22.2347 87.1012 23.3458 87.1012 24.7433C87.1012 25.0412 87.0669 25.3619 86.9981 25.7056H82.3932C82.4161 25.6368 82.4275 25.5337 82.4275 25.3963C82.4275 24.9839 82.2786 24.6632 81.9808 24.4341C81.7059 24.182 81.3278 24.056 80.8467 24.056H78.235C77.5477 24.056 76.9864 24.1477 76.5511 24.331C76.1387 24.5142 75.8981 24.7663 75.8294 25.087L75.7263 25.6368C75.6805 25.8659 75.7377 26.0721 75.8981 26.2554C76.0585 26.4387 76.322 26.5647 76.6885 26.6334L82.7368 27.7675C83.8823 27.9966 84.7758 28.4319 85.4173 29.0734C86.0817 29.692 86.4139 30.4136 86.4139 31.2384C86.4139 31.4675 86.4025 31.6393 86.3795 31.7539L86.1734 32.991C85.9213 34.526 85.1653 35.7173 83.9052 36.565C82.6681 37.4127 81.0529 37.8365 79.0597 37.8365H75.9668ZM90.4287 37.9053C89.7185 37.9053 89.1458 37.6991 88.7105 37.2867C88.2752 36.8743 88.0575 36.3359 88.0575 35.6715C88.0575 34.6635 88.3554 33.8502 88.951 33.2316C89.5696 32.5901 90.3829 32.2694 91.391 32.2694C92.1012 32.2694 92.6739 32.4755 93.1092 32.8879C93.5445 33.3003 93.7622 33.8387 93.7622 34.5031C93.7622 35.5112 93.4529 36.3359 92.8343 36.9774C92.2387 37.596 91.4368 37.9053 90.4287 37.9053ZM111.984 31.9601H102.946L99.8529 37.5616H94.7325L108.376 13.5059H110.506C111.995 13.5059 112.889 14.1932 113.187 15.5678L117.86 37.5616H113.084L111.984 31.9601ZM104.939 27.9737H111.4L109.75 19.3136H109.716L104.939 27.9737ZM124.687 13.5059H129.43L125.203 37.5616H120.461L124.687 13.5059Z" fill="white"/>
<path d="M13.3639 27.0128L17.3265 35.4394L12.5116 40L4.60533 36.9651L0.602743 29.4873L4.51115 24.1262L13.3639 27.0128ZM19.7092 20.4438L14.1268 26.702L18.0729 35.138L27.4766 38.4861L34.2221 33.245L30.4715 23.5917L19.7092 20.4438ZM4.4052 6.91742L0 14.3458L4.50174 23.328L13.4204 26.1934L19.0005 19.7963L14.5435 9.4367L4.4052 6.91742ZM22.1696 0L15.4994 9.07411L19.9353 19.4879L30.8435 22.6029L39.0535 14.8896L34.9167 2.58991L22.1696 0Z" fill="white"/>
</svg>
